<?xml version="1.0" standalone="no"?>
<!DOCTYPE svg PUBLIC "-//W3C//DTD SVG 20010904//EN"
 "http://www.w3.org/TR/2001/REC-SVG-20010904/DTD/svg10.dtd">
<svg version="1.0" xmlns="http://www.w3.org/2000/svg"
 width="1280.000000pt" height="825.000000pt" viewBox="0 0 1280.000000 825.000000"
 preserveAspectRatio="xMidYMid meet">
<g transform="translate(0.000000,825.000000) scale(0.100000,-0.100000)"
fill="#000000" stroke="none">
<path d="M7306 8239 c-702 -27 -1437 -107 -2291 -250 -645 -107 -987 -175
-1240 -245 -144 -40 -398 -128 -487 -169 l-58 -26 0 -113 c0 -195 -38 -288
-137 -333 -45 -21 -66 -25 -119 -21 -35 2 -64 1 -64 -3 0 -4 -12 -21 -26 -38
-31 -37 -89 -56 -219 -71 -49 -6 -105 -15 -123 -21 -50 -16 -72 -6 -168 81
-96 87 -176 133 -220 128 -19 -2 -37 -16 -59 -48 l-32 -45 -74 -1 c-57 -2 -92
-9 -154 -34 -50 -20 -106 -34 -150 -37 l-70 -6 -235 -157 c-389 -261 -487
-341 -726 -592 -204 -213 -329 -373 -428 -543 -47 -82 -116 -236 -116 -260 0
-8 12 -15 28 -17 l27 -3 6 -135 c6 -137 19 -206 46 -248 13 -22 13 -28 -6 -71
-11 -26 -25 -79 -31 -117 -12 -70 -31 -579 -23 -601 3 -7 20 -24 39 -38 19
-14 34 -30 34 -35 0 -5 -23 -19 -50 -31 -101 -44 -125 -112 -73 -212 32 -61
31 -30 16 -597 l-9 -375 -28 -68 c-35 -84 -32 -130 13 -206 45 -75 54 -140 48
-311 -7 -175 -18 -242 -49 -307 -24 -51 -27 -91 -17 -320 l4 -102 -31 -33
c-39 -41 -54 -69 -54 -102 0 -34 16 -41 47 -21 33 22 43 9 43 -64 0 -43 -7
-66 -35 -117 -26 -46 -35 -74 -35 -109 l0 -46 59 7 c37 4 61 2 65 -4 4 -6 -12
-102 -36 -214 -39 -189 -42 -214 -42 -368 -1 -153 1 -169 23 -217 23 -51 25
-53 65 -53 47 0 172 -26 335 -69 226 -60 548 -92 1311 -131 223 -11 563 -31
755 -45 517 -36 703 -44 1195 -51 748 -11 1701 26 2535 98 277 24 288 24 395
15 41 -4 68 -4 60 -1 -8 4 -18 12 -22 18 -9 14 -830 15 -1623 2 -504 -8 -582
-7 -940 13 -1132 63 -3053 194 -2985 204 177 26 790 34 2260 29 723 -2 910 0
1295 17 540 25 1301 47 2090 61 1636 29 2383 47 2880 70 371 17 927 51 975 59
29 5 -83 11 -305 16 -515 12 -1313 -9 -2300 -61 -159 -8 -600 -19 -980 -24
-379 -5 -897 -19 -1150 -30 -810 -35 -1230 -43 -2140 -43 -931 -1 -2060 24
-2081 46 -4 3 3 179 15 390 15 251 20 422 15 493 -7 123 4 187 37 205 43 23
51 7 47 -98 -3 -86 -1 -98 14 -101 25 -5 37 33 47 141 5 48 13 93 18 98 5 5
55 10 111 12 107 2 122 -3 136 -49 6 -19 2 -22 -56 -28 -69 -7 -124 -31 -146
-64 -14 -22 -14 -22 41 -22 72 0 104 -15 117 -55 11 -33 10 -36 -37 -160 -18
-46 -36 -336 -28 -430 3 -33 2 -108 -2 -167 l-8 -108 82 0 83 0 0 73 c1 374
27 998 43 1013 3 3 23 8 45 11 l39 5 6 -62 c4 -35 7 -88 7 -119 0 -61 16 -131
30 -131 11 0 18 36 25 140 9 130 12 140 51 156 36 15 184 18 219 5 16 -7 14
-9 -13 -14 -54 -11 -135 -54 -171 -91 -26 -26 -34 -45 -38 -83 l-5 -48 41 57
c39 54 103 98 143 98 22 0 78 -21 78 -29 0 -4 -11 -13 -25 -19 -63 -29 -86
-150 -45 -241 24 -52 24 -51 6 -51 -8 0 -16 -4 -18 -10 -1 -5 -2 -154 0 -330
l3 -321 92 3 92 3 6 420 c3 231 10 489 14 573 l8 152 34 0 c42 0 53 -24 53
-119 0 -74 14 -126 35 -135 16 -6 21 16 30 131 8 99 29 144 70 155 16 4 101
11 187 14 l158 7 0 -104 0 -104 -18 34 c-66 122 -302 75 -328 -65 -7 -40 12
-118 27 -109 5 4 23 32 39 64 35 71 73 117 100 124 14 4 32 -4 55 -25 l35 -30
-24 -31 c-13 -18 -31 -48 -39 -68 -36 -86 -40 -141 -41 -502 l-1 -357 137 0
138 0 0 193 c0 105 -3 384 -7 620 l-6 427 -87 0 c-160 0 -592 -38 -960 -85
-553 -71 -624 -77 -945 -85 -291 -7 -332 -10 -445 -34 -175 -37 -250 -42 -330
-22 -36 9 -68 20 -73 25 -22 22 1392 207 2253 295 2109 215 4384 316 7449 333
1163 6 1184 6 1177 -13 -16 -43 -16 -72 2 -123 l18 -53 -27 -27 c-36 -37 -53
-118 -52 -261 0 -221 26 -317 147 -540 116 -216 140 -290 138 -430 -1 -127
-10 -155 -48 -154 -16 1 -64 -2 -107 -6 -75 -8 -117 -27 -117 -53 0 -6 60 -8
158 -4 175 5 231 19 277 67 l28 29 -16 496 c-17 561 -9 518 -102 561 -66 31
-185 32 -185 1 0 -6 -6 -18 -14 -26 -12 -14 -10 -31 15 -126 28 -107 35 -191
20 -229 -7 -17 -10 -15 -28 15 -24 40 -55 120 -80 204 -13 44 -18 95 -18 190
0 149 14 205 71 279 26 35 31 47 21 53 -35 20 -40 52 -22 143 11 52 15 98 11
116 -4 16 -29 49 -55 74 -27 25 -54 55 -60 68 -8 15 -11 71 -9 170 3 160 -6
201 -47 220 -13 6 -26 8 -29 5 -9 -9 -8 -75 6 -304 l12 -206 53 -28 c29 -15
53 -30 53 -34 0 -3 -332 -4 -737 -3 -558 3 -865 0 -1261 -14 -468 -15 -590
-16 -1157 -5 -720 14 -868 11 -1370 -29 -755 -61 -1223 -89 -2295 -135 -1355
-59 -1534 -68 -1980 -105 -195 -16 -416 -34 -490 -40 -359 -29 -684 -78 -1285
-194 -214 -41 -442 -84 -505 -96 -63 -12 -122 -23 -130 -26 -13 -3 -18 20 -28
153 -17 216 -17 216 8 203 11 -6 48 -10 81 -8 l61 3 4 60 c2 33 7 188 12 345
5 186 13 295 21 315 14 35 59 85 77 85 20 0 24 -55 24 -344 0 -248 9 -379 27
-409 7 -12 43 23 63 63 32 63 39 131 41 402 l2 268 -27 21 c-66 52 -6 106 110
96 82 -6 87 -10 64 -50 -32 -55 -40 -140 -37 -412 2 -229 0 -265 -15 -299 -23
-50 -23 -53 11 -59 62 -13 80 -66 26 -77 -52 -11 -75 -29 -75 -58 0 -15 5 -34
10 -42 8 -12 13 -11 33 8 27 26 47 28 87 7 l30 -16 0 130 c0 71 7 214 16 318
21 249 15 482 -14 572 -12 36 -19 68 -17 72 3 4 28 12 55 19 40 10 57 10 80 0
34 -14 36 -22 16 -77 -36 -101 -50 -396 -32 -648 l8 -110 21 40 c21 38 22 54
22 310 0 251 1 272 20 303 10 17 22 32 26 32 3 0 9 -123 13 -272 6 -247 -2
-444 -20 -500 -4 -13 0 -18 14 -18 26 0 43 -22 67 -89 17 -48 24 -56 48 -59
22 -3 27 1 28 20 3 56 -4 85 -27 118 -13 19 -36 52 -50 73 -15 20 -24 40 -21
43 3 3 26 -4 51 -16 26 -11 51 -18 56 -15 13 8 13 412 0 530 -5 50 -10 142
-10 207 -1 148 15 193 77 212 22 7 22 6 25 -126 l3 -133 30 0 30 0 0 -260 c1
-251 12 -365 35 -365 15 0 40 31 46 56 4 14 -1 80 -9 147 -21 157 -14 197 33
182 33 -10 41 -69 34 -244 l-7 -159 27 -17 c30 -20 32 -28 10 -49 -12 -13 -27
-15 -70 -10 -37 5 -58 3 -69 -6 -40 -33 2 -66 101 -79 38 -5 77 -12 87 -16 15
-6 17 0 17 68 l0 76 38 3 37 3 -4 355 c-2 195 -7 380 -12 410 -22 135 -5 210
47 210 26 0 26 0 28 -90 1 -52 3 -55 27 -58 36 -4 43 18 28 100 -7 38 -10 71
-7 74 10 9 121 33 159 34 40 0 64 -20 74 -61 6 -25 3 -28 -41 -43 -64 -22
-107 -56 -129 -105 -10 -23 -16 -43 -14 -44 2 -2 27 -18 54 -36 l50 -32 3 46
3 45 50 -41 c27 -23 49 -47 49 -52 0 -6 -9 -29 -20 -51 -35 -73 -42 -171 -28
-381 l13 -190 86 -3 86 -3 9 283 c13 404 9 555 -16 653 -11 43 -24 83 -28 87
-15 15 -499 -40 -772 -88 -349 -61 -662 -152 -868 -254 -64 -32 -118 -57 -120
-55 -2 2 3 18 11 37 21 51 73 90 188 140 226 99 358 136 794 222 316 62 320
63 615 139 246 64 328 79 600 107 107 12 476 61 820 110 1235 175 1349 187
2265 235 1492 78 2521 114 3230 115 193 1 476 5 630 10 854 28 1040 24 1180
-27 127 -46 163 -49 385 -28 227 22 229 24 85 73 l-80 27 -350 0 c-192 1 -946
8 -1675 15 -1567 17 -1765 16 -2095 -10 -578 -46 -842 -60 -1715 -95 -349 -14
-747 -32 -885 -39 -137 -8 -252 -12 -253 -11 -2 2 -7 40 -11 85 -5 54 -12 84
-21 90 -21 14 -36 12 -50 -5 -12 -15 -11 -51 6 -147 8 -43 45 -35 -318 -73
-141 -15 -261 -24 -266 -21 -6 3 -13 45 -16 94 -4 48 -9 113 -12 144 l-6 57
34 3 33 3 0 200 c0 110 -4 333 -9 496 l-8 295 -62 -8 c-79 -10 -498 -108 -510
-119 -12 -10 9 -393 23 -416 18 -32 33 58 38 219 l5 157 42 6 c22 3 83 15 134
26 51 11 127 22 168 26 l74 6 0 -71 c0 -39 -4 -73 -9 -76 -5 -3 -28 1 -51 9
-109 39 -214 -1 -262 -100 -39 -77 -30 -160 24 -221 25 -28 75 -64 90 -64 2 0
2 29 0 63 -6 112 31 196 102 231 36 18 40 18 73 2 24 -11 40 -30 54 -61 20
-45 23 -84 41 -460 l2 -50 -69 -2 c-39 0 -103 -4 -142 -8 -83 -8 -81 -4 -61
-111 l11 -63 81 -3 81 -3 3 -112 3 -112 -48 -6 c-26 -4 -158 -24 -291 -46
-134 -21 -246 -39 -249 -39 -11 0 6 241 32 470 33 284 36 541 8 670 l-18 85
-55 9 c-65 10 -183 -4 -280 -35 -224 -70 -225 -71 -440 -79 -225 -8 -257 -15
-345 -75 -74 -51 -267 -95 -410 -94 l-60 0 165 60 c413 149 843 280 1370 418
190 49 453 119 584 156 604 167 867 220 1246 250 107 8 240 22 295 30 141 22
477 87 472 91 -7 7 -462 -15 -647 -31 -754 -66 -1487 -221 -2555 -541 -774
-233 -1329 -455 -1717 -687 -60 -36 -108 -63 -108 -61 0 2 16 24 35 49 39 51
55 100 47 140 -4 23 4 35 54 80 33 29 56 56 53 59 -4 4 -42 -17 -85 -47 -88
-60 -198 -127 -208 -127 -4 0 -2 9 4 21 43 80 67 274 50 414 -6 53 -18 115
-26 138 -12 35 -12 42 0 56 8 9 32 55 54 102 42 90 78 129 120 129 l25 0 -21
-23 c-82 -87 -116 -325 -67 -468 18 -52 78 -129 101 -129 17 0 49 50 65 100 7
21 15 171 19 375 8 358 14 409 55 461 l23 29 12 -30 c25 -63 6 -174 -48 -277
-2 -4 12 -22 32 -40 l35 -33 8 -240 c8 -238 8 -240 31 -243 12 -2 22 -6 22 -9
0 -3 -17 -26 -39 -52 -43 -52 -55 -81 -46 -111 9 -27 26 -25 58 8 80 84 88
203 61 943 l-7 176 64 45 c35 25 74 48 85 52 19 6 22 2 27 -35 3 -23 15 -54
26 -68 51 -64 51 -61 37 -139 -12 -73 -30 -109 -41 -81 -2 8 -8 38 -12 68 -5
30 -13 56 -19 58 -17 6 -42 -66 -50 -139 -3 -36 1 -128 10 -214 9 -83 16 -180
16 -216 l0 -66 38 -7 c20 -4 63 -16 94 -26 l57 -20 43 22 c24 12 77 34 118 49
75 27 75 27 107 91 52 102 67 214 59 449 -14 436 -17 677 -9 720 8 42 11 45
48 53 40 9 226 67 257 81 15 7 16 4 8 -26 -16 -52 -12 -151 9 -246 19 -87 26
-144 23 -193 -2 -23 -9 -27 -56 -39 -54 -13 -54 -13 -60 -58 -13 -93 -6 -231
18 -363 14 -74 26 -163 28 -197 l3 -64 -85 -22 c-47 -12 -95 -29 -108 -37 -22
-14 -39 -46 -29 -56 3 -3 43 9 89 27 46 18 110 38 143 44 l60 12 32 64 c72
148 85 343 54 807 -12 171 -21 350 -21 397 0 47 -3 86 -6 86 -3 0 -24 -11 -47
-24 -23 -14 -112 -53 -197 -86 -185 -73 -256 -110 -315 -162 -43 -38 -45 -39
-45 -16 0 14 5 50 11 81 11 51 10 59 -7 78 -29 33 -56 21 -69 -31 -11 -45 -11
-45 -55 -45 -29 0 -45 -5 -48 -15 -3 -8 -11 -21 -19 -28 -16 -16 -3 -46 27
-62 27 -14 25 -30 -6 -57 -29 -24 -44 -21 -78 16 -30 33 -53 26 -91 -28 -20
-27 -42 -52 -51 -55 -23 -9 -64 -7 -64 2 0 5 40 54 89 109 165 185 357 342
595 485 206 123 340 171 517 184 l90 7 25 48 c13 27 29 49 35 49 27 0 71 -36
147 -119 118 -129 130 -131 341 -67 87 27 152 33 195 16 l26 -10 0 -178 0
-179 -40 -7 c-50 -8 -73 -39 -61 -81 5 -18 14 -29 22 -27 8 2 28 6 45 9 l32 5
-6 -384 -5 -385 62 11 61 10 0 643 c0 630 0 643 19 643 11 0 87 34 170 77 119
60 161 77 204 81 52 4 152 -12 161 -27 2 -3 7 -104 11 -223 l7 -218 -71 0
c-91 0 -111 -10 -111 -55 0 -45 21 -57 81 -43 26 6 58 8 73 4 l26 -6 0 -123
c0 -122 -52 -599 -70 -644 -12 -28 -57 -40 -190 -48 -115 -8 -181 -29 -200
-65 -6 -12 -9 -24 -7 -27 3 -2 51 5 106 16 55 11 149 26 207 33 l107 13 28 60
c75 160 90 293 96 858 l5 457 55 0 c50 0 54 2 51 22 -2 18 -14 24 -67 34 -35
7 -71 20 -80 28 -13 12 -43 13 -163 9 l-148 -6 0 155 0 155 168 46 c763 213
1644 374 2552 467 673 68 1316 98 2150 101 416 1 504 -4 597 -39 l48 -18 6
-59 c7 -79 17 -95 115 -196 46 -48 90 -102 98 -121 8 -19 20 -79 25 -134 17
-159 54 -271 219 -654 58 -135 127 -308 153 -385 l47 -139 43 -12 c148 -37
225 -157 257 -397 l9 -68 -392 2 c-401 2 -445 -2 -486 -38 -10 -8 -19 -30 -21
-49 l-4 -34 86 0 c47 0 153 5 235 10 83 5 250 12 371 16 l221 7 7 -54 c3 -30
13 -193 22 -364 l15 -310 -27 -21 -27 -22 31 -38 c64 -81 93 -157 192 -490
l42 -141 216 -6 c200 -6 282 -16 346 -42 17 -8 18 -5 11 26 -19 82 -18 84 59
87 38 2 73 -1 77 -5 4 -4 10 -34 12 -67 l5 -58 98 -2 99 -1 3 -46 3 -46 92 -6
c51 -2 145 -13 210 -23 l117 -18 0 -36 c0 -54 41 -125 129 -223 43 -48 87
-104 97 -125 25 -54 29 -157 10 -322 -20 -173 -14 -268 19 -308 34 -41 45 -67
45 -106 0 -35 -12 -47 -25 -26 -3 6 -9 10 -13 10 -4 0 -7 -114 -7 -253 0 -270
9 -331 56 -390 20 -27 20 -27 165 -27 79 0 144 -1 145 -2 0 -2 11 -70 23 -153
l22 -150 57 -38 c56 -37 77 -67 77 -108 0 -12 -7 -19 -19 -19 -59 0 -71 -52
-22 -92 16 -13 32 -33 36 -45 5 -19 0 -27 -29 -44 l-36 -21 -2 -381 c-4 -595
-5 -588 26 -651 36 -73 51 -77 66 -16 6 27 17 53 23 58 7 5 98 37 202 71 201
65 375 141 375 163 0 7 -5 119 -10 248 -12 281 -46 1341 -60 1845 -16 619 -27
776 -67 935 -30 120 -57 170 -126 225 -207 165 -496 320 -767 409 -254 84
-479 126 -775 146 -141 10 -167 14 -215 38 -45 22 -72 28 -146 30 l-91 4 -6
-134 c-3 -73 -10 -145 -16 -160 l-11 -28 -209 0 -210 0 -21 58 c-109 289 -175
672 -246 1427 -14 154 -30 292 -36 306 -16 44 -87 107 -199 177 l-106 66 -62
201 c-186 600 -246 790 -298 936 l-57 161 -56 43 c-61 47 -122 109 -138 140
-9 16 -4 27 29 62 41 45 50 85 27 115 -34 42 -1023 71 -1622 47z"/>
<path d="M7954 8080 c-25 -10 -39 -39 -26 -52 25 -25 144 -36 186 -16 21 9 24
16 19 37 -3 14 -6 26 -7 27 -7 7 -156 10 -172 4z"/>
<path d="M8287 8070 c-50 -9 -76 -34 -61 -58 9 -14 29 -18 108 -20 l96 -3 0
46 0 45 -52 -1 c-29 -1 -70 -5 -91 -9z"/>
<path d="M8522 8058 c-6 -6 -12 -22 -12 -34 0 -25 31 -34 119 -34 67 0 92 14
85 50 -5 24 -9 25 -92 28 -60 2 -91 -1 -100 -10z"/>
<path d="M7343 8050 c-26 -11 -40 -49 -22 -61 19 -11 134 -22 161 -15 38 10
46 20 41 49 -5 24 -10 27 -47 27 -22 0 -57 2 -76 5 -19 3 -45 1 -57 -5z"/>
<path d="M7660 8051 c-17 -5 -26 -15 -28 -34 -5 -38 31 -49 124 -41 l74 7 0
33 c0 33 -1 34 -44 34 -24 0 -56 2 -72 4 -16 3 -40 1 -54 -3z"/>
<path d="M7052 8030 c-25 -10 -45 -52 -36 -75 5 -12 27 -15 110 -15 115 0 112
-2 98 68 -6 29 -6 30 -78 30 -39 1 -81 -3 -94 -8z"/>
<path d="M6784 8011 c-65 -6 -94 -22 -94 -51 0 -25 19 -30 121 -30 l89 0 0 45
c0 51 8 48 -116 36z"/>
<path d="M6417 7968 c-16 -6 -30 -20 -33 -35 -11 -41 16 -53 113 -53 l83 0 0
48 0 47 -68 1 c-37 1 -79 -2 -95 -8z"/>
<path d="M6128 7917 l-68 -10 0 -34 0 -33 105 0 c114 0 111 -2 99 59 -7 35
-14 36 -136 18z"/>
<path d="M5793 7875 c-40 -28 -30 -52 27 -64 28 -6 65 -11 83 -11 41 0 83 22
78 41 -2 8 -4 20 -4 27 0 7 -15 12 -37 12 -21 0 -57 3 -81 6 -32 4 -50 1 -66
-11z"/>
<path d="M5518 7830 c-22 -14 -23 -56 -2 -64 9 -3 54 -6 100 -6 l84 0 0 38 0
37 -83 3 c-45 1 -90 -3 -99 -8z"/>
<path d="M8623 7815 c-37 -26 -31 -71 12 -96 32 -19 35 -25 35 -67 0 -26 3
-104 7 -174 l6 -126 -106 -4 c-58 -1 -107 -5 -109 -8 -2 -3 -2 -47 0 -97 l4
-93 109 0 109 0 0 -96 c0 -52 7 -150 16 -217 21 -161 15 -228 -31 -313 -40
-76 -44 -111 -16 -145 26 -32 38 -19 57 62 8 35 22 71 31 81 16 17 15 55 -6
531 -12 282 -25 554 -28 605 l-6 94 34 -4 c33 -3 34 -2 37 35 l3 37 -48 0
c-26 0 -57 3 -68 6 -11 2 -30 -2 -42 -11z"/>
<path d="M5293 7810 c-50 -11 -81 -36 -88 -70 -4 -17 -5 -33 -3 -34 8 -7 181
24 194 35 15 12 18 37 8 63 -7 17 -54 20 -111 6z"/>
<path d="M6787 7804 c-13 -13 -7 -107 13 -229 11 -66 20 -164 20 -217 l0 -98
-27 0 c-14 0 -55 -5 -90 -11 l-63 -11 0 -74 0 -74 84 0 c57 0 87 -4 93 -12 4
-7 8 -175 9 -373 1 -369 5 -406 41 -420 13 -4 15 82 12 692 l-4 698 45 3 c48
4 70 16 70 39 0 24 -41 32 -90 17 -65 -20 -69 -19 -72 28 -3 41 -22 60 -41 42z"/>
<path d="M4952 7761 l-74 -15 6 -34 c3 -19 7 -36 9 -39 3 -2 35 3 71 12 37 8
80 15 97 15 24 0 29 4 29 24 0 24 -34 57 -55 55 -5 -1 -43 -9 -83 -18z"/>
<path d="M7752 7764 c-41 -7 -76 -15 -79 -18 -3 -3 0 -20 7 -38 7 -20 13 -105
15 -216 2 -100 7 -192 10 -202 6 -18 1 -20 -48 -20 -62 0 -76 -11 -73 -56 4
-47 13 -55 60 -53 64 4 66 0 64 -109 -2 -53 1 -221 5 -372 4 -151 4 -297 0
-325 l-8 -50 -285 0 c-290 0 -337 -5 -418 -42 l-37 -17 115 -8 c179 -14 977
-3 1285 17 149 10 271 19 273 21 2 1 0 18 -3 38 l-7 36 -394 0 -394 0 0 48 c0
26 -11 325 -25 665 l-26 618 21 17 c15 13 21 26 18 48 l-3 30 -73 -12z"/>
<path d="M4705 7721 c-47 -8 -73 -21 -98 -49 -16 -17 -16 -23 -5 -41 15 -25
17 -25 88 -6 30 8 70 15 89 15 32 0 33 1 27 31 -3 17 -6 38 -6 45 0 15 -27 16
-95 5z"/>
<path d="M4344 7669 c-44 -13 -76 -51 -69 -81 l6 -24 77 13 c120 20 138 34
112 84 -12 21 -69 25 -126 8z"/>
<path d="M5154 7569 c4 -24 9 -45 11 -47 4 -4 258 47 289 58 11 4 -43 10 -119
14 -77 4 -150 9 -164 13 -23 6 -24 5 -17 -38z"/>
<path d="M4070 7581 c-70 -14 -104 -47 -93 -89 6 -26 2 -26 78 -7 33 8 77 14
98 15 41 0 43 6 25 57 -13 36 -30 39 -108 24z"/>
<path d="M5874 7374 l7 -216 -23 3 c-13 2 -49 -1 -80 -5 -57 -7 -57 -7 -60
-44 -2 -26 -8 -38 -20 -40 -15 -3 -18 4 -18 36 0 38 -2 40 -37 46 -21 3 -71 6
-111 6 l-73 0 7 -69 6 -69 -28 -4 -29 -3 -3 -293 -2 -293 37 7 c21 3 74 15
118 25 44 10 109 22 143 25 l64 7 -7 258 -8 259 61 0 60 0 6 -92 c11 -162 24
-663 17 -670 -10 -10 -199 -46 -311 -58 -298 -31 -346 -44 -376 -102 l-15 -29
43 5 c24 3 129 17 233 31 174 23 389 45 441 45 18 0 23 9 32 68 25 151 33 371
30 816 l-3 459 27 1 c37 2 48 15 41 49 -4 22 -11 27 -37 27 -17 1 -42 7 -56
15 -14 8 -38 14 -54 15 l-29 0 7 -216z m-201 -841 c-13 -2 -33 -2 -45 0 -13 2
-3 4 22 4 25 0 35 -2 23 -4z"/>
<path d="M3850 7539 c-101 -12 -149 -48 -128 -94 10 -22 12 -22 59 -10 27 7
72 16 100 20 l51 7 -7 37 c-4 20 -10 39 -13 42 -4 3 -32 2 -62 -2z"/>
<path d="M4800 7523 c-14 -2 -86 -20 -160 -38 -74 -18 -150 -37 -167 -40 -31
-6 -33 -9 -33 -52 0 -39 2 -44 18 -38 9 4 79 20 155 36 149 31 205 55 245 107
l25 32 -29 -1 c-16 -1 -40 -4 -54 -6z"/>
<path d="M4986 7466 c19 -89 34 -298 27 -373 l-6 -61 -61 -6 c-111 -13 -106
-9 -106 -87 l0 -68 83 -3 82 -3 3 -381 2 -381 -52 -17 c-29 -9 -100 -24 -158
-32 -294 -41 -400 -63 -400 -84 0 -27 140 -20 330 16 41 8 104 14 139 14 57 0
68 4 110 35 26 19 59 39 73 44 25 9 26 14 32 108 7 119 31 1099 28 1167 -5
108 -37 162 -105 173 l-35 5 14 -66z"/>
<path d="M3504 7439 c-45 -13 -77 -51 -68 -83 7 -28 6 -28 94 -5 19 5 52 9 72
9 45 0 50 7 36 53 -11 36 -13 37 -57 36 -25 0 -60 -5 -77 -10z"/>
<path d="M4340 7399 c-14 -4 -42 -10 -63 -14 -28 -4 -43 -14 -57 -38 -26 -42
-25 -47 8 -47 49 0 52 -12 52 -179 0 -86 -3 -166 -6 -178 -6 -22 -11 -23 -101
-23 l-95 0 7 -82 c3 -46 15 -175 26 -286 12 -112 19 -206 16 -208 -8 -9 -129
-6 -138 3 -5 5 -8 57 -7 114 l3 104 44 3 43 3 -6 37 c-3 20 -9 61 -12 90 l-7
52 -44 0 c-51 0 -55 18 -7 33 51 17 62 57 14 57 -30 0 -139 -26 -148 -35 -3
-3 1 -30 8 -60 12 -50 16 -55 41 -55 58 0 45 -64 -19 -91 l-44 -19 7 -158 c4
-86 8 -158 10 -160 1 -1 48 4 103 13 56 8 125 15 153 15 l52 0 -7 223 -7 222
43 -1 c24 0 49 -1 56 -2 9 -2 12 -60 12 -257 0 -253 0 -254 -24 -290 -25 -37
-41 -102 -34 -146 2 -20 9 -24 37 -24 35 0 35 0 53 70 33 127 39 242 36 687
-3 385 -1 444 15 531 10 54 17 100 15 101 -1 2 -14 0 -28 -5z"/>
<path d="M3960 7320 c-56 -7 -122 -24 -167 -41 -21 -8 -23 -12 -13 -24 22 -26
76 -28 165 -6 46 11 105 21 130 21 43 0 45 1 45 30 0 30 -1 30 -52 29 -29 -1
-78 -5 -108 -9z"/>
<path d="M7926 7308 c-5 -17 -26 -129 -26 -140 0 -10 137 -11 144 0 2 4 8 40
11 80 l8 72 -67 0 c-45 0 -68 -4 -70 -12z"/>
<path d="M8170 7230 l0 -70 79 0 78 0 7 53 c11 93 16 87 -79 87 l-85 0 0 -70z"/>
<path d="M7250 7260 c0 -6 7 -27 15 -47 24 -58 21 -63 -37 -63 l-51 0 6 -167
c4 -91 7 -201 7 -245 l0 -78 185 0 185 0 0 245 0 245 -38 0 c-38 0 -38 0 -52
58 l-15 57 -102 3 c-68 2 -103 -1 -103 -8z"/>
<path d="M6980 7237 c0 -13 3 -45 6 -71 l7 -46 69 0 69 0 -3 68 -3 67 -72 3
c-71 3 -73 2 -73 -21z"/>
<path d="M6080 7151 l0 -58 68 -7 c37 -3 78 -9 91 -13 23 -6 24 -5 16 43 -5
27 -8 59 -8 72 1 21 -2 22 -83 22 l-84 0 0 -59z"/>
<path d="M6350 7155 l0 -55 69 0 69 0 10 33 c25 82 30 77 -64 77 l-84 0 0 -55z"/>
<path d="M5231 7115 c-25 -6 -47 -17 -49 -24 -2 -7 1 -42 8 -77 11 -59 15 -65
34 -61 11 3 48 11 81 18 33 7 62 14 64 15 1 2 -3 35 -10 73 l-12 71 -36 -1
c-20 -1 -56 -7 -80 -14z"/>
<path d="M4672 6992 l-43 -17 3 -64 3 -65 54 3 c66 3 101 16 101 36 0 10 -10
15 -34 15 -47 0 -66 9 -66 30 0 14 9 20 38 22 32 3 37 6 37 28 0 31 -31 35
-93 12z"/>
<path d="M2060 6941 c0 -48 -12 -52 -69 -19 -44 25 -65 20 -89 -23 -35 -64
-53 -81 -83 -77 -26 4 -28 1 -34 -40 -4 -24 -3 -48 2 -53 6 -6 36 5 74 26 136
75 185 95 252 102 l65 6 13 44 c7 27 8 48 3 53 -6 6 -38 13 -72 16 l-62 7 0
-42z"/>
<path d="M4435 6963 c-27 -8 -52 -17 -54 -18 -8 -8 22 -145 32 -145 6 0 44 8
84 18 81 19 80 16 62 105 -11 55 -13 57 -43 56 -17 -1 -53 -8 -81 -16z"/>
<path d="M2160 6784 c-105 -29 -201 -100 -187 -138 8 -20 58 -21 95 -2 15 8
52 30 81 50 57 37 135 56 153 38 8 -8 8 -152 -1 -504 -18 -740 -19 -689 4
-722 17 -26 20 -27 31 -11 7 10 23 58 34 109 31 129 36 348 16 667 -9 140 -16
316 -16 390 l0 134 -77 2 c-45 1 -102 -4 -133 -13z"/>
<path d="M1630 6755 c-26 -14 -62 -24 -87 -25 -31 0 -45 -5 -53 -19 -22 -42
-3 -131 28 -131 8 0 36 23 61 50 39 43 51 50 83 50 39 0 40 2 53 68 6 29 4 32
-17 32 -13 -1 -43 -12 -68 -25z"/>
<path d="M3700 6771 c-24 -6 -25 -11 -28 -84 l-3 -77 91 0 90 0 0 39 0 40 -52
3 c-45 3 -53 6 -53 23 0 16 7 20 37 20 43 0 55 9 38 30 -13 16 -74 19 -120 6z"/>
<path d="M3233 6667 l-41 -9 -4 -60 -3 -59 65 7 c36 3 67 8 69 10 2 2 0 28 -3
58 -8 61 -17 67 -83 53z"/>
<path d="M1355 6598 c-11 -6 -21 -12 -23 -14 -2 -1 0 -23 3 -48 8 -52 23 -58
75 -31 34 18 39 48 14 83 -17 24 -38 27 -69 10z"/>
<path d="M3014 6548 c4 -35 9 -64 11 -66 1 -2 26 0 54 4 l51 7 0 58 0 59 -61
0 -62 0 7 -62z"/>
<path d="M2603 6498 c-19 -9 -23 -19 -23 -55 l0 -43 41 0 40 0 -3 52 c-3 57
-14 66 -55 46z"/>
<path d="M2440 6384 c0 -43 2 -46 23 -40 12 3 30 6 40 6 11 0 17 8 17 24 0 31
-25 56 -56 56 -22 0 -24 -4 -24 -46z"/>
<path d="M2205 6359 c-4 -6 -4 -30 0 -55 5 -39 9 -44 31 -44 25 0 25 2 19 43
-10 58 -33 84 -50 56z"/>
<path d="M2665 6339 c-22 -5 -51 -11 -64 -14 l-23 -6 4 -162 c5 -151 18 -227
38 -227 18 0 25 51 25 188 0 130 2 145 19 158 44 32 46 24 46 -157 0 -133 3
-170 13 -166 6 3 24 11 39 19 l28 13 0 183 0 182 -42 -1 c-24 -1 -61 -5 -83
-10z"/>
<path d="M2080 6290 c-13 -13 -20 -33 -20 -56 0 -33 2 -36 23 -29 12 4 30 7
40 8 18 1 21 16 11 66 -7 36 -25 40 -54 11z"/>
<path d="M6163 6260 c-38 -12 -63 -44 -63 -82 0 -27 2 -27 43 -23 23 3 171 12
329 20 158 8 300 18 316 21 30 6 30 6 13 35 l-16 29 -206 0 c-113 0 -246 2
-295 5 -49 2 -103 0 -121 -5z"/>
<path d="M9536 6152 c-8 -112 0 -157 29 -168 9 -4 19 -4 22 0 13 13 21 105 16
189 -6 87 -6 87 -33 87 l-27 0 -7 -108z"/>
<path d="M1930 6202 c0 -32 16 -52 42 -52 14 0 18 8 18 40 0 38 -2 40 -30 40
-26 0 -30 -4 -30 -28z"/>
<path d="M8218 6213 c-33 -5 -32 -2 -12 -53 16 -40 17 -40 69 -40 l52 0 9 -52
c9 -53 9 -53 47 -54 20 -1 40 2 42 7 3 4 0 48 -7 98 l-12 91 -31 0 c-16 0 -52
2 -80 4 -27 2 -62 2 -77 -1z"/>
<path d="M1670 6182 c0 -26 -20 -42 -53 -42 -28 0 -29 -1 -22 -40 l7 -40 -40
0 c-36 0 -40 -3 -46 -31 -3 -17 -6 -35 -6 -40 0 -5 29 -9 64 -9 59 0 65 2 68
23 2 17 11 23 35 25 29 3 32 7 35 40 3 34 6 37 36 40 31 3 32 5 32 48 l0 44
-55 0 c-46 0 -55 -3 -55 -18z"/>
<path d="M6408 6043 c-4 -91 0 -111 23 -118 27 -9 49 11 49 44 0 15 6 35 13
45 12 17 15 16 44 -8 17 -14 40 -26 52 -26 19 0 21 6 21 65 l0 65 -99 0 -99 0
-4 -67z"/>
<path d="M4045 5943 c-16 -2 -79 -15 -140 -28 -60 -13 -130 -26 -155 -27 -41
-3 -45 -6 -48 -30 l-3 -28 73 0 c40 0 118 7 173 15 55 8 134 15 176 15 l77 0
6 31 c12 59 11 59 -61 58 -38 -1 -81 -4 -98 -6z"/>
<path d="M7230 5909 c-397 -18 -719 -51 -1007 -101 -104 -18 -121 -23 -111
-35 40 -48 114 -57 311 -37 89 9 186 14 215 11 42 -5 63 -1 106 19 88 40 191
50 373 36 328 -27 431 -31 513 -24 81 7 85 8 82 30 -4 27 0 27 144 5 150 -22
539 -23 679 0 104 16 129 31 123 72 -3 19 -13 20 -153 26 -210 9 -1076 8
-1275 -2z"/>
<path d="M4740 5901 l-35 -6 -3 -64 c-3 -62 -2 -63 20 -58 13 3 47 9 76 13
l52 7 0 58 0 59 -37 -1 c-21 -1 -54 -4 -73 -8z"/>
<path d="M5684 5781 c-28 -13 -45 -28 -51 -48 l-10 -28 152 0 c166 0 185 6
185 55 0 25 -4 28 -46 34 -90 12 -187 6 -230 -13z"/>
<path d="M2798 5685 c-2 -3 -49 -14 -104 -25 -124 -25 -171 -43 -211 -82 -31
-30 -60 -84 -51 -94 3 -3 69 18 146 46 77 27 163 55 190 61 44 11 51 16 56 42
9 44 7 57 -7 57 -8 0 -16 -2 -19 -5z"/>
<path d="M3263 5639 c-32 -9 -33 -11 -33 -69 l0 -60 60 0 60 0 0 70 c0 70 0
70 -27 69 -16 0 -43 -5 -60 -10z"/>
<path d="M9120 5640 c-69 -4 -153 -5 -186 -3 -54 5 -64 3 -83 -16 -12 -12 -19
-26 -16 -31 18 -29 95 -35 387 -32 l297 2 16 -29 c41 -80 47 -144 54 -551 4
-217 11 -404 15 -415 32 -83 46 -84 46 -2 0 34 9 164 20 287 32 369 24 611
-23 684 -59 90 -228 124 -527 106z"/>
<path d="M8110 5630 c-41 -4 -117 -8 -168 -9 -104 -1 -110 -9 -33 -45 44 -20
61 -21 336 -21 274 0 292 -1 335 -21 90 -42 84 -6 76 -494 -7 -456 -4 -492 39
-545 l23 -29 8 339 c5 187 9 428 9 534 l0 195 -43 33 c-72 55 -124 66 -327 68
-99 2 -214 -1 -255 -5z"/>
<path d="M7155 5614 c-22 -2 -65 -7 -95 -10 l-55 -6 28 -24 c53 -46 116 -55
344 -52 l208 3 57 -28 c69 -34 93 -69 113 -164 19 -89 19 -223 -1 -430 -17
-179 -15 -438 4 -483 10 -24 11 -24 34 25 23 50 23 51 26 524 2 349 0 482 -9
503 -18 45 -87 96 -159 120 -56 18 -92 21 -260 23 -107 2 -213 1 -235 -1z"/>
<path d="M6365 5555 c-319 -63 -313 -61 -280 -75 73 -29 152 -28 403 5 132 17
240 15 272 -5 12 -8 16 -80 22 -447 4 -241 12 -462 18 -491 9 -52 42 -112 61
-112 5 0 9 207 9 524 l0 524 -42 36 c-23 20 -65 43 -92 51 -74 22 -228 18
-371 -10z"/>
<path d="M2175 5483 c-11 -2 -68 -18 -127 -35 -115 -33 -113 -31 -102 -99 l6
-37 52 23 c28 12 73 30 100 40 52 19 126 78 126 101 0 14 -16 16 -55 7z"/>
<path d="M5535 5473 c-16 -2 -106 -17 -200 -32 l-170 -28 49 -23 c66 -30 151
-29 336 4 175 31 296 35 304 9 17 -54 28 -276 33 -653 5 -363 8 -428 21 -442
8 -10 18 -18 22 -18 4 0 13 44 20 98 15 122 15 928 -1 970 -14 37 -46 70 -94
95 -34 18 -59 22 -165 23 -69 1 -138 0 -155 -3z"/>
<path d="M9112 5429 c-62 -12 -104 -39 -127 -81 -11 -20 -17 -39 -15 -42 3 -2
32 5 65 16 72 25 210 30 268 9 50 -17 106 -67 124 -109 11 -27 11 -43 1 -92
-11 -56 -11 -62 13 -102 23 -42 24 -51 29 -285 3 -167 9 -246 17 -254 29 -29
35 190 17 587 -10 198 -11 203 -37 238 -66 86 -233 140 -355 115z"/>
<path d="M4740 5379 c-69 -5 -172 -12 -230 -16 l-105 -8 2 -86 c1 -57 9 -108
23 -150 19 -57 20 -68 9 -125 -13 -64 -8 -99 14 -92 17 6 36 65 36 119 1 25
-6 90 -14 145 -8 54 -15 109 -15 122 l0 22 274 0 273 0 8 -342 c5 -189 9 -418
9 -510 1 -144 3 -170 18 -185 10 -9 20 -14 23 -11 14 13 26 144 28 288 1 85
-2 309 -7 498 l-9 342 -106 -1 c-58 -1 -162 -6 -231 -10z"/>
<path d="M7295 5381 c-96 -25 -184 -106 -210 -194 -18 -62 -10 -74 40 -57 27
9 45 25 65 59 54 86 57 89 117 102 62 12 141 4 234 -27 42 -13 48 -20 79 -84
19 -39 37 -70 41 -70 11 0 -9 87 -30 127 -26 52 -77 98 -133 123 -52 23 -156
34 -203 21z"/>
<path d="M8180 5369 c-52 -24 -86 -53 -106 -92 l-15 -28 28 14 c107 56 278 50
346 -11 11 -9 28 -37 39 -62 36 -85 78 -90 78 -9 0 88 -56 162 -147 195 -59
21 -170 17 -223 -7z"/>
<path d="M6437 5339 c-95 -14 -171 -69 -203 -146 -18 -43 -29 -139 -17 -146
18 -11 138 81 162 124 24 42 69 69 113 69 36 -1 103 -35 167 -85 31 -25 60
-45 64 -45 25 0 -16 116 -56 158 -53 57 -141 84 -230 71z"/>
<path d="M2088 5333 c-27 -4 -28 -7 -28 -59 l0 -54 60 0 60 0 0 60 0 60 -32
-1 c-18 -1 -45 -4 -60 -6z"/>
<path d="M3990 5275 c-107 -31 -234 -63 -280 -70 l-35 -5 -3 -179 c-3 -149 -1
-184 12 -210 39 -75 56 -20 56 183 l0 162 163 22 c89 12 190 22 224 22 62 0
63 0 90 -41 21 -31 28 -57 31 -105 6 -88 0 -101 -33 -68 -46 46 -111 69 -200
69 -63 0 -89 -5 -122 -22 -49 -27 -82 -70 -90 -118 -5 -31 -3 -35 16 -35 25 0
41 -34 41 -88 0 -47 25 -84 53 -80 20 3 22 10 27 102 l5 99 39 14 c110 38 198
23 236 -39 31 -51 27 -91 -15 -122 l-34 -26 24 -45 c14 -28 26 -70 29 -110 3
-36 9 -94 12 -128 l5 -64 -140 -6 c-78 -3 -145 -8 -149 -11 -8 -5 -1 -105 13
-188 7 -38 7 -38 53 -38 26 0 79 12 117 26 39 15 93 31 120 37 28 6 51 11 52
12 1 0 -4 113 -12 250 -14 245 -14 250 5 265 18 14 20 28 20 200 0 102 -4 203
-9 224 -31 126 -140 163 -321 111z"/>
<path d="M5504 5270 c-84 -18 -167 -70 -196 -124 -33 -61 -26 -142 18 -208
l24 -38 -65 0 -65 0 0 -55 0 -55 65 0 64 0 6 38 c33 200 162 335 307 318 59
-6 99 -27 149 -77 l39 -39 0 33 c-1 78 -77 171 -162 196 -56 17 -134 22 -184
11z"/>
<path d="M4695 5138 c-57 -21 -113 -67 -134 -112 l-22 -44 45 -71 c25 -39 50
-71 56 -71 5 0 12 12 16 28 10 43 51 107 81 128 50 34 87 46 163 53 l75 7 -36
35 c-20 19 -54 40 -76 47 -49 14 -127 14 -168 0z"/>
<path d="M7898 5018 c-3 -98 5 -118 40 -99 21 11 29 37 34 106 3 40 3 40 -34
43 l-38 3 -2 -53z"/>
<path d="M1015 5011 c-41 -25 -125 -101 -125 -112 0 -15 59 -10 93 8 36 18
140 100 145 114 7 17 -83 9 -113 -10z"/>
<path d="M1191 5000 c-68 -38 -67 -36 -47 -55 9 -9 16 -23 16 -31 0 -22 14
-17 96 38 70 47 75 52 58 65 -28 20 -64 15 -123 -17z"/>
<path d="M6985 4938 c4 -46 8 -84 9 -84 0 -1 16 -5 34 -9 l32 -7 0 91 0 91
-41 0 -41 0 7 -82z"/>
<path d="M8523 4988 c-20 -26 -21 -48 -9 -134 20 -136 45 -124 -250 -124
l-254 0 0 -77 0 -78 72 0 73 0 14 -92 13 -93 75 0 c73 0 74 0 91 32 23 43 60
80 75 75 7 -2 17 -18 23 -35 5 -18 18 -40 27 -49 25 -25 43 -3 71 86 50 157
57 326 20 450 -15 52 -24 61 -41 39z"/>
<path d="M6103 4914 c-16 -25 -16 -27 2 -40 10 -8 24 -14 30 -14 23 0 55 32
55 56 0 21 -5 24 -35 24 -26 0 -39 -6 -52 -26z"/>
<path d="M4469 4784 c-14 -4 -18 -27 -24 -129 -4 -68 -4 -137 0 -154 5 -26 29
-51 48 -51 3 0 10 36 16 80 13 86 41 179 67 218 9 13 13 26 10 29 -8 8 -97 13
-117 7z"/>
<path d="M7103 4604 c4 -59 7 -126 7 -149 l0 -42 196 -7 c187 -6 298 2 334 24
11 7 10 30 -6 142 l-20 133 -258 3 -259 2 6 -106z"/>
<path d="M6375 4660 c-60 -4 -118 -8 -127 -9 -16 -1 -18 -13 -18 -107 l0 -106
123 8 c171 12 233 8 290 -20 l47 -23 0 36 c0 22 12 56 30 86 22 36 30 63 30
98 l0 47 -132 -2 c-73 -1 -182 -5 -243 -8z"/>
<path d="M3684 4614 c-23 -54 -32 -206 -23 -371 5 -80 11 -148 13 -151 13 -13
37 121 44 251 l9 147 62 65 c35 36 61 71 59 78 -3 8 -30 13 -77 15 l-72 3 -15
-37z"/>
<path d="M5390 4445 c0 -63 3 -115 8 -115 4 0 42 7 85 15 118 23 151 20 165
-11 16 -33 68 -54 137 -54 l55 0 0 140 0 140 -225 0 -225 0 0 -115z"/>
<path d="M3052 4502 c-15 -10 -22 -370 -8 -411 l9 -25 16 30 c12 22 17 67 21
179 l5 150 55 8 c72 10 83 22 47 53 -22 19 -39 24 -80 24 -29 0 -58 -4 -65 -8z"/>
<path d="M4795 4493 c-82 -11 -105 -23 -126 -64 -36 -72 -38 -219 -3 -205 8 3
71 9 139 12 120 7 125 8 125 29 0 12 14 47 30 78 22 41 30 70 30 107 l0 50
-82 -1 c-46 -1 -96 -4 -113 -6z"/>
<path d="M8599 4389 c-7 -13 -15 -59 -18 -101 l-6 -78 27 0 c33 0 42 24 42
112 1 40 -4 62 -16 74 -15 15 -17 15 -29 -7z"/>
<path d="M9540 4295 l0 -85 30 0 30 0 0 71 c0 57 -4 75 -17 85 -37 28 -43 18
-43 -71z"/>
<path d="M7632 4289 c6 -74 19 -102 39 -82 6 6 14 43 17 82 l5 71 -33 0 -33 0
5 -71z"/>
<path d="M6779 4318 c0 -2 -3 -38 -6 -81 -5 -76 4 -107 29 -107 15 0 38 66 38
107 0 42 -23 83 -46 83 -8 0 -14 -1 -15 -2z"/>
<path d="M5810 4180 c0 -78 3 -93 21 -111 32 -32 42 -12 38 79 -3 61 -9 85
-23 101 -11 12 -23 21 -28 21 -4 0 -8 -40 -8 -90z"/>
<path d="M4976 4159 c-31 -45 -15 -139 23 -139 27 0 28 5 19 77 -11 80 -20 93
-42 62z"/>
<path d="M3100 3983 c-49 -18 -66 -66 -27 -77 65 -17 149 8 197 59 l23 25 -89
-1 c-49 0 -96 -3 -104 -6z"/>
<path d="M9140 3875 c-8 -2 -61 -9 -118 -15 -56 -7 -105 -16 -107 -21 -14 -21
90 -31 309 -30 247 2 302 -6 344 -52 20 -21 20 -36 27 -542 6 -423 10 -524 21
-542 8 -13 18 -23 23 -23 4 0 14 44 21 98 10 71 13 222 12 557 l-2 460 -29 26
c-61 57 -210 90 -389 88 -53 -1 -104 -3 -112 -4z"/>
<path d="M10030 3851 l-195 -18 40 -19 c35 -17 66 -19 248 -21 236 -3 278 -13
317 -75 21 -32 21 -41 18 -513 -2 -479 0 -525 31 -525 26 0 35 72 37 292 1
125 7 300 14 390 7 90 11 208 9 263 -6 131 -24 169 -100 207 -73 37 -170 41
-419 19z"/>
<path d="M10888 3851 c-31 -3 -60 -9 -64 -13 -11 -12 75 -46 146 -57 91 -15
205 -14 293 3 69 14 149 45 160 63 6 10 -456 13 -535 4z"/>
<path d="M7987 3840 c-31 -9 -57 -28 -57 -40 0 -5 17 -14 37 -21 28 -9 82 -10
218 -3 325 16 379 9 442 -53 l36 -37 -7 -375 c-7 -352 0 -552 22 -631 17 -62
33 183 38 595 l6 430 -24 35 c-32 47 -89 77 -168 89 -85 13 -507 21 -543 11z"/>
<path d="M7235 3825 c-11 -2 -64 -7 -118 -10 -107 -8 -112 -14 -38 -49 43 -19
60 -21 269 -18 168 2 228 0 239 -10 8 -7 33 -38 54 -69 l39 -58 20 -317 c11
-175 20 -368 20 -428 1 -133 11 -191 38 -218 l20 -21 7 77 c9 91 2 450 -15
781 l-12 240 -36 33 c-57 52 -114 65 -302 68 -91 1 -174 1 -185 -1z"/>
<path d="M6470 3794 c-90 -10 -267 -38 -285 -44 -41 -16 58 -25 210 -20 299 9
333 7 349 -15 54 -73 72 -311 59 -755 -6 -200 -6 -335 -1 -352 8 -23 42 -47
53 -36 2 1 9 66 15 142 9 114 9 219 -5 560 l-17 421 -33 32 c-18 17 -56 38
-83 47 -52 15 -202 27 -262 20z"/>
<path d="M5450 3704 c-8 -1 -64 -6 -125 -10 l-110 -7 40 -18 c49 -22 105 -24
313 -14 187 9 175 13 245 -89 l40 -59 8 -216 c5 -119 13 -334 17 -477 7 -221
11 -266 25 -288 10 -14 22 -26 27 -26 25 0 31 274 18 817 l-6 253 -26 34 c-33
44 -113 82 -196 96 -60 9 -235 12 -270 4z"/>
<path d="M4525 3643 c-60 -8 -112 -17 -115 -20 -3 -2 10 -18 28 -34 44 -40 90
-41 259 -8 57 11 129 19 164 17 61 -3 64 -4 91 -43 55 -79 63 -140 61 -450 -1
-288 -19 -515 -40 -522 -21 -7 -27 62 -25 299 l1 237 -47 3 -47 3 0 40 0 40
58 3 57 3 0 42 c-1 126 -129 238 -274 238 -35 0 -79 -6 -99 -14 -47 -20 -86
-74 -93 -130 -9 -65 11 -62 85 8 46 44 65 55 90 55 l33 0 -35 -47 c-51 -70
-67 -107 -67 -152 0 -34 4 -43 29 -55 26 -14 41 -34 41 -56 0 -17 -32 -40 -56
-40 -17 0 -25 -7 -30 -26 -4 -15 -1 -128 6 -253 9 -148 10 -250 4 -296 l-9
-70 -60 3 c-33 1 -75 0 -93 -3 -27 -5 -33 -10 -30 -28 5 -39 47 -50 138 -36
44 6 86 9 94 6 11 -5 17 4 22 31 12 76 -3 70 187 74 128 2 177 7 194 17 19 13
22 28 28 120 4 58 4 247 -1 420 -5 174 -9 370 -9 436 l0 120 -46 31 c-26 17
-72 36 -104 42 -77 16 -254 13 -390 -5z"/>
<path d="M10115 3654 c-102 -23 -101 -22 -152 -108 -77 -128 -85 -162 -58
-242 5 -18 2 -22 -23 -27 l-29 -6 -9 -173 c-11 -208 -11 -343 -1 -381 l7 -27
263 2 262 3 0 340 c-1 295 -3 349 -19 405 -24 89 -64 158 -106 186 -36 23 -99
36 -135 28z"/>
<path d="M8210 3637 c-153 -36 -258 -143 -263 -270 -2 -50 -1 -52 25 -55 14
-2 45 6 67 17 65 34 66 33 80 -93 16 -138 11 -161 -31 -152 -17 3 -39 6 -49 6
-15 0 -19 11 -25 60 -5 45 -11 60 -22 60 -9 0 -39 16 -67 36 -40 27 -60 35
-86 32 -30 -3 -34 -6 -30 -28 4 -34 23 -58 78 -100 l48 -36 9 -242 9 -242 207
0 207 0 7 38 c3 20 6 83 6 138 0 168 22 241 81 271 l24 12 7 -184 c6 -181 16
-243 42 -264 24 -20 41 166 41 454 0 275 -10 369 -47 457 -19 45 -24 49 -83
67 -86 27 -169 33 -235 18z"/>
<path d="M9145 3641 c-78 -19 -135 -71 -185 -171 l-30 -60 20 -37 19 -37 -29
-18 -30 -18 0 -308 0 -309 128 -8 c196 -13 225 -12 256 8 37 25 23 39 -52 52
l-57 10 0 165 c0 148 2 169 21 200 l20 35 90 3 c61 2 95 -1 106 -10 15 -11 19
-38 23 -168 6 -151 20 -250 34 -250 24 0 50 510 32 627 -24 153 -88 256 -178
287 -48 16 -135 20 -188 7z"/>
<path d="M7253 3581 c-134 -49 -200 -151 -191 -297 l5 -74 -32 0 c-17 0 -40
-7 -51 -15 -18 -14 -18 -14 7 -15 26 0 64 -31 53 -42 -3 -4 0 -119 7 -257 l13
-251 273 0 273 0 0 185 0 186 -37 -7 c-64 -10 -115 -41 -213 -124 -52 -44 -99
-79 -104 -77 -22 7 -27 67 -15 212 10 134 10 154 -5 189 -15 37 -15 40 1 59
26 28 81 53 133 61 42 6 152 -5 209 -21 l24 -6 -6 66 c-11 122 -69 202 -169
232 -67 20 -111 19 -175 -4z"/>
<path d="M3835 3580 c-70 -12 -159 -36 -196 -56 -26 -13 -27 -16 -33 -141 -8
-140 -3 -178 25 -193 30 -16 42 22 49 161 4 70 11 132 14 138 5 7 72 11 210
11 l204 0 10 -27 c6 -16 14 -50 17 -78 4 -27 9 -59 12 -70 4 -13 -5 -8 -29 17
-41 44 -74 58 -136 58 -60 0 -136 -35 -185 -86 -49 -49 -67 -84 -70 -132 -2
-31 1 -37 18 -37 13 0 30 18 52 59 19 33 41 65 51 72 35 27 41 17 44 -78 l3
-93 27 3 c39 5 42 -12 12 -75 -25 -50 -28 -67 -28 -162 -1 -58 3 -181 8 -273
l9 -168 156 0 156 0 -3 148 c-3 86 3 233 13 352 21 250 23 435 6 515 -15 68
-46 104 -107 124 -51 16 -232 22 -309 11z"/>
<path d="M6335 3577 c-106 -28 -180 -80 -188 -134 -4 -21 -10 -51 -13 -68 l-7
-30 37 34 c22 22 39 31 45 25 5 -5 11 -50 13 -101 2 -75 7 -97 25 -121 l22
-30 -29 -12 c-16 -7 -34 -18 -40 -25 -7 -9 -6 -93 4 -285 8 -150 16 -273 18
-275 2 -1 41 2 88 7 47 5 164 12 260 16 l175 7 3 403 c2 383 1 404 -17 441
-27 52 -102 116 -159 136 -64 22 -176 28 -237 12z"/>
<path d="M5473 3526 c-22 -7 -55 -23 -71 -34 -34 -25 -65 -83 -60 -113 3 -20
5 -19 42 10 50 40 58 39 40 -4 -18 -45 -18 -161 1 -215 20 -57 20 -59 -15 -71
l-30 -11 0 -96 c-1 -54 -5 -155 -9 -227 -5 -71 -6 -156 -3 -188 4 -54 7 -58
26 -53 12 3 110 9 219 12 l197 7 0 166 c0 91 -5 216 -10 276 -11 110 -42 248
-62 272 -8 10 -4 13 20 13 17 0 34 5 37 10 14 22 -7 110 -37 154 -53 81 -187
124 -285 92z"/>
<path d="M4362 3418 c-3 -115 6 -161 35 -173 9 -3 17 -4 19 -2 2 2 5 54 7 114
2 99 0 114 -19 139 -11 15 -24 29 -30 31 -5 2 -10 -45 -12 -109z"/>
<path d="M3130 3495 c-63 -8 -139 -17 -167 -20 l-53 -6 0 -244 c0 -243 6 -295
35 -295 17 0 24 61 31 288 l7 192 181 0 182 0 27 -55 c22 -46 35 -95 25 -95
-2 0 -32 9 -66 20 -35 11 -88 20 -117 20 -48 0 -56 -3 -74 -29 -62 -87 -92
-213 -55 -228 26 -10 48 11 58 53 15 70 24 86 49 82 36 -5 45 -92 46 -462 l1
-329 61 7 c34 3 86 6 115 6 l54 0 0 433 c0 378 -7 556 -25 633 -3 12 -15 24
-27 27 -56 14 -183 15 -288 2z"/>
<path d="M11003 3459 c-91 -21 -135 -103 -114 -215 9 -52 8 -66 -5 -94 -17
-33 -17 -57 2 -337 l6 -91 87 -7 c47 -4 138 -13 201 -21 63 -8 121 -14 129
-14 12 0 13 30 8 183 -3 102 -12 204 -19 232 -13 46 -12 55 4 90 44 98 3 192
-105 244 -71 34 -134 43 -194 30z"/>
<path d="M2426 3395 c-42 -12 -79 -32 -65 -36 2 -1 64 -5 138 -8 l133 -6 35
-65 34 -65 -90 -5 c-107 -6 -124 -18 -146 -101 -19 -69 -19 -140 -1 -183 29
-69 50 -57 61 33 9 74 29 111 59 111 21 0 24 -7 35 -67 6 -38 16 -183 22 -323
6 -140 13 -270 15 -288 l5 -32 97 6 c53 4 98 8 100 9 1 1 -7 224 -18 496 -11
272 -20 502 -20 512 0 14 -7 17 -37 15 -21 -1 -99 1 -173 5 -101 5 -147 3
-184 -8z"/>
<path d="M2325 3111 c-4 -73 -4 -135 -2 -138 3 -3 18 -1 33 4 27 9 27 11 25
84 -2 82 -13 135 -34 164 -13 16 -15 2 -22 -114z"/>
<path d="M6040 3142 c0 -22 -3 -80 -6 -130 l-7 -92 35 0 36 0 4 113 c3 61 8
120 12 130 7 15 2 17 -33 17 -41 0 -41 0 -41 -38z"/>
<path d="M5193 3083 c2 -49 10 -101 17 -118 12 -29 13 -28 36 64 13 52 28 99
34 105 24 24 10 36 -41 36 l-52 0 6 -87z"/>
<path d="M4389 3121 c-36 -15 -37 -16 -37 -76 0 -33 -6 -99 -12 -147 -12 -91
-5 -143 24 -167 11 -9 17 -3 31 26 14 28 19 77 25 207 4 94 7 171 6 172 0 0
-17 -6 -37 -15z"/>
<path d="M3616 2973 c-3 -21 -9 -126 -12 -233 -7 -205 2 -316 32 -389 l16 -41
112 0 c122 0 147 7 121 33 -17 18 -63 32 -138 43 -71 10 -73 20 -59 222 15
205 15 286 1 352 -10 45 -13 50 -39 50 -24 0 -28 -5 -34 -37z"/>
<path d="M3040 2895 c0 -54 1 -55 29 -55 26 0 30 5 40 44 16 64 15 66 -29 66
l-40 0 0 -55z"/>
<path d="M2329 2839 c-6 -12 -11 -44 -12 -73 -1 -68 13 -365 19 -392 5 -30 35
-40 51 -18 19 26 7 449 -13 482 -18 28 -30 28 -45 1z"/>
<path d="M2943 2800 c-34 -135 -39 -313 -11 -375 15 -33 46 -33 54 0 11 44 -2
327 -18 375 l-14 45 -11 -45z"/>
<path d="M1823 2618 c7 -233 16 -338 27 -338 4 0 16 12 26 28 17 23 19 49 21
202 1 96 2 187 2 203 1 26 3 27 52 27 43 0 50 3 45 16 -3 9 -9 26 -12 39 -7
28 -29 35 -108 35 l-59 0 6 -212z"/>
<path d="M10445 2580 c-1 -3 -6 -40 -10 -82 l-7 -78 49 0 c33 0 50 4 50 13 0
6 4 42 8 78 l7 67 -47 4 c-26 2 -48 1 -50 -2z"/>
<path d="M9550 2500 l0 -70 35 0 c27 0 35 4 35 18 0 9 3 41 6 70 l7 52 -42 0
-41 0 0 -70z"/>
<path d="M11252 2512 c-17 -81 -17 -82 23 -82 l35 0 0 70 c0 66 -1 70 -23 70
-20 0 -25 -8 -35 -58z"/>
<path d="M7642 2538 c-7 -7 -12 -43 -12 -90 l0 -78 30 0 c28 0 30 2 30 38 0
69 -13 142 -24 142 -7 0 -17 -5 -24 -12z"/>
<path d="M8577 2533 c-4 -3 -7 -35 -7 -70 l0 -63 35 0 35 0 0 70 0 70 -28 0
c-16 0 -32 -3 -35 -7z"/>
<path d="M6690 2415 l0 -75 35 0 35 0 0 75 0 75 -35 0 -35 0 0 -75z"/>
<path d="M5786 2427 c-7 -56 -1 -87 18 -87 28 1 40 21 44 79 l4 61 -30 0 c-28
0 -30 -2 -36 -53z"/>
<path d="M5160 2415 l0 -45 38 0 c22 0 53 10 77 25 23 14 56 25 78 25 30 0 37
4 37 20 0 19 -7 20 -115 20 l-115 0 0 -45z"/>
<path d="M4950 2320 l0 -70 41 0 42 0 -8 33 c-3 17 -9 49 -12 70 -5 33 -9 37
-34 37 l-29 0 0 -70z"/>
<path d="M4107 2303 c17 -54 36 -73 70 -73 25 0 26 5 17 74 l-7 46 -48 0 -48
0 16 -47z"/>
<path d="M3345 2264 c11 -70 27 -100 47 -88 4 3 8 41 8 85 l0 79 -34 0 -33 0
12 -76z"/>
<path d="M3043 2323 c-123 -4 -119 -1 -104 -65 l6 -27 100 40 c55 22 104 44
110 50 5 5 7 8 5 7 -3 -1 -56 -4 -117 -5z"/>
<path d="M2410 2276 c0 -7 -3 -28 -6 -45 -6 -30 -5 -31 27 -31 49 0 96 16 143
47 41 27 41 27 16 34 -14 4 -60 7 -102 8 -60 1 -78 -2 -78 -13z"/>
<path d="M2665 2273 c24 -57 34 -92 35 -121 0 -31 2 -33 33 -30 l32 3 3 83 3
82 -57 0 c-50 0 -55 -2 -49 -17z"/>
<path d="M1865 2173 c4 -32 9 -60 11 -62 13 -14 66 -1 95 23 41 35 70 46 98
39 18 -5 21 -13 21 -64 0 -59 0 -59 30 -59 36 0 42 17 38 112 l-3 68 -149 0
-148 0 7 -57z"/>
<path d="M10783 2073 c-42 -22 -46 -36 -15 -53 20 -11 77 -16 232 -20 228 -6
255 -13 285 -76 19 -40 20 -175 4 -554 -12 -272 -5 -476 19 -539 8 -23 9 -23
28 15 17 35 19 58 16 214 -1 96 5 290 14 430 26 424 3 543 -116 578 -19 6
-126 12 -238 15 -161 3 -208 1 -229 -10z"/>
<path d="M9956 2056 c-99 -8 -126 -14 -115 -22 37 -30 91 -35 321 -32 211 3
236 1 271 -16 76 -37 77 -42 77 -280 0 -116 -5 -355 -10 -530 -10 -323 -7
-362 26 -373 16 -5 24 156 34 672 7 434 7 451 -12 485 -24 45 -72 78 -140 96
-62 16 -257 16 -452 0z"/>
<path d="M9120 2043 c-30 -2 -86 -8 -123 -14 -79 -13 -78 -27 6 -55 44 -15 71
-16 206 -8 182 10 357 12 365 3 4 -3 13 -39 22 -80 11 -55 17 -187 24 -514 5
-243 14 -479 19 -525 6 -47 11 -91 11 -99 0 -10 3 -11 9 -6 25 25 32 194 29
660 -4 529 -7 549 -67 614 l-29 31 -209 -2 c-114 -1 -233 -3 -263 -5z"/>
<path d="M8013 2020 c-24 -10 -43 -23 -43 -29 0 -28 78 -36 335 -36 248 0 262
-1 301 -22 22 -12 45 -28 51 -35 13 -14 58 -991 48 -1008 -3 -6 -17 -10 -30
-10 -21 0 -23 -4 -20 -32 3 -18 7 -54 10 -80 3 -25 12 -51 20 -58 10 -9 17 1
34 52 44 134 52 331 26 657 -8 101 -18 262 -21 357 -4 96 -10 174 -14 174 -4
0 -27 17 -51 38 l-44 39 -280 6 c-262 6 -283 5 -322 -13z"/>
<path d="M591 1976 c-32 -17 -45 -30 -46 -47 -1 -13 -5 -39 -9 -56 -7 -29 -5
-33 13 -33 56 0 116 44 130 98 19 66 -10 79 -88 38z"/>
<path d="M7165 1966 l-150 -11 50 -20 c57 -23 111 -24 411 -11 l190 9 23 -54
c46 -105 52 -178 57 -604 2 -220 9 -427 15 -459 11 -59 33 -106 50 -106 5 0 9
243 9 563 l0 563 -35 41 c-82 96 -229 118 -620 89z"/>
<path d="M6134 1946 c-43 -19 -49 -33 -22 -48 16 -9 98 -14 278 -18 247 -5
257 -6 305 -30 28 -14 60 -40 73 -60 l24 -35 -3 -540 c-3 -558 -2 -585 36
-585 8 0 22 11 31 25 20 30 20 19 3 665 -12 459 -13 476 -34 507 -63 95 -151
120 -457 128 -165 5 -209 3 -234 -9z"/>
<path d="M5320 1935 c-157 -21 -167 -25 -100 -42 39 -9 129 -13 311 -13 l257
0 25 -30 c34 -40 65 -126 77 -214 6 -41 9 -271 8 -548 -2 -262 0 -479 3 -482
12 -12 37 6 49 34 15 36 4 1106 -11 1157 -14 44 -87 106 -151 128 -71 24 -322
29 -468 10z"/>
<path d="M4546 1919 c-104 -5 -190 -10 -191 -11 -5 -8 14 -340 20 -346 4 -4
19 7 35 24 34 39 51 111 43 187 -7 67 -22 60 182 78 158 14 273 16 327 5 l36
-7 1 -78 c0 -44 5 -129 11 -189 15 -159 -5 -247 -54 -240 -20 3 -21 10 -26
173 -5 158 -7 174 -31 220 l-25 50 -61 3 c-82 4 -156 -25 -256 -102 -74 -57
-81 -65 -98 -121 -20 -63 -21 -116 -3 -122 6 -2 25 26 43 61 46 94 129 159
219 173 l37 6 -37 -39 c-47 -50 -92 -147 -115 -249 -15 -68 -17 -131 -18 -411
0 -308 -1 -333 -18 -352 -11 -12 -16 -26 -12 -31 4 -7 92 -11 261 -11 l254 0
0 123 c0 67 -5 368 -12 670 l-12 547 -155 -2 c-86 0 -241 -5 -345 -9z"/>
<path d="M385 1895 c-14 -13 -25 -35 -25 -49 0 -24 23 -56 40 -56 13 0 37 49
45 93 7 33 5 37 -14 37 -12 0 -33 -11 -46 -25z"/>
<path d="M3606 1863 c-4 -4 13 -143 18 -152 4 -5 19 3 34 19 46 45 89 51 312
44 231 -8 205 9 214 -139 3 -49 10 -148 16 -220 6 -71 8 -151 5 -177 -7 -46
-8 -48 -40 -48 l-33 0 -4 133 c-5 140 -20 208 -60 267 -38 55 -71 74 -143 78
-109 7 -185 -45 -185 -128 0 -16 3 -30 8 -30 4 0 27 16 51 35 24 19 59 39 77
44 32 9 74 5 74 -7 0 -3 -21 -39 -46 -80 l-47 -74 37 -70 36 -69 -25 -33 c-41
-54 -49 -119 -34 -285 21 -220 19 -327 -7 -379 l-21 -42 179 0 c134 0 180 3
183 13 36 99 54 451 36 712 -11 168 -50 577 -56 583 -3 3 -576 8 -579 5z"/>
<path d="M9155 1837 c-107 -28 -182 -87 -210 -167 -18 -49 -13 -115 10 -161
12 -22 11 -29 -5 -54 -10 -16 -24 -59 -30 -96 -14 -84 -8 -476 9 -506 6 -12
16 -44 22 -72 11 -53 30 -81 55 -81 18 0 18 34 -1 96 -8 27 -15 68 -15 92 0
41 1 42 32 42 46 0 65 -23 93 -115 24 -81 59 -133 69 -104 3 8 7 124 9 259 4
218 6 252 26 313 27 82 76 136 140 155 23 8 46 10 49 7 7 -7 17 -69 48 -300
l18 -130 -24 -131 c-27 -153 -24 -184 20 -184 17 0 30 3 30 8 0 4 9 50 20 102
46 221 46 474 0 610 -17 52 -19 66 -9 106 10 40 8 58 -16 150 l-28 104 -63 31
c-75 37 -168 46 -249 26z"/>
<path d="M10030 1788 c-57 -19 -133 -103 -154 -171 -21 -67 -18 -82 21 -92 36
-9 42 -19 34 -58 -6 -27 -11 -32 -36 -32 l-30 0 -3 -337 -2 -338 90 0 90 0 0
223 c0 281 17 395 65 443 20 20 34 24 81 24 l57 0 -7 -117 c-3 -65 -8 -197
-11 -293 -3 -96 -8 -194 -11 -217 l-5 -43 95 0 c52 0 101 3 110 6 14 5 16 43
16 314 l0 309 -40 3 -40 3 31 65 c18 36 31 78 30 93 -4 68 -75 162 -154 204
-39 20 -177 27 -227 11z"/>
<path d="M10900 1793 c0 -4 14 -28 30 -52 28 -41 29 -44 14 -73 -31 -60 -44
-159 -44 -344 0 -100 -3 -208 -6 -240 -6 -55 -10 -62 -55 -99 -26 -22 -52 -41
-58 -43 -8 -3 -11 76 -11 262 0 221 2 264 14 260 19 -7 46 23 39 44 -4 9 -17
31 -29 49 -12 18 -27 62 -34 98 -7 36 -16 65 -21 65 -5 0 -19 -15 -30 -32 -18
-30 -20 -44 -15 -133 3 -55 10 -226 16 -380 12 -358 17 -415 36 -408 8 3 25 2
38 -1 29 -7 51 -63 42 -102 l-6 -24 87 7 c49 5 109 8 136 8 l47 0 0 136 0 137
43 12 42 13 -1 316 c-1 249 -5 336 -18 411 -9 52 -21 99 -27 105 -12 12 -229
20 -229 8z"/>
<path d="M6380 1757 c-122 -27 -209 -107 -236 -214 -6 -22 -4 -24 15 -18 30 9
48 -9 76 -72 22 -49 23 -56 10 -95 -25 -77 -35 -196 -35 -435 l0 -236 -37 -33
-38 -34 275 4 c151 2 286 7 299 12 l24 7 -7 366 -7 366 -25 18 c-34 26 -32 61
6 77 27 11 30 17 30 59 0 53 -35 135 -71 168 -62 57 -181 82 -279 60z"/>
<path d="M8154 1749 c-105 -40 -190 -148 -196 -249 -3 -42 -1 -45 25 -48 32
-4 33 -14 8 -56 -34 -57 -44 -129 -37 -270 3 -72 9 -193 12 -268 l7 -138 61 0
c34 0 122 -7 196 -16 111 -14 145 -14 193 -4 45 9 57 15 55 28 -2 12 -15 18
-42 20 l-39 3 7 242 c5 133 11 269 14 302 l7 60 46 3 46 3 7 -47 c3 -26 6
-119 6 -208 1 -167 11 -286 32 -346 l12 -35 7 40 c20 107 30 416 20 598 -11
213 -26 262 -96 330 -77 75 -236 100 -351 56z"/>
<path d="M5442 1739 c-58 -29 -127 -108 -152 -176 -11 -31 -19 -57 -17 -60 3
-2 17 11 32 29 33 39 74 68 96 68 15 0 15 -5 -2 -61 -28 -89 -25 -116 11 -137
31 -17 45 -45 38 -79 -2 -12 -14 -19 -37 -21 l-33 -3 7 -307 7 -307 -53 -3
c-59 -3 -96 -25 -70 -42 23 -14 181 -21 376 -18 l180 4 8 353 8 353 -30 86
c-16 48 -39 118 -51 155 -42 139 -97 187 -212 187 -44 0 -76 -6 -106 -21z"/>
<path d="M7287 1750 c-114 -29 -205 -126 -223 -238 l-6 -39 43 -9 c40 -8 44
-12 47 -41 3 -32 2 -33 -37 -33 l-41 0 0 -297 c0 -284 -2 -312 -31 -423 -4
-13 36 -15 311 -15 l315 0 9 218 c4 120 6 220 3 223 -8 8 -148 21 -174 16 -22
-4 -23 -7 -23 -107 0 -121 7 -129 82 -95 50 22 78 18 78 -11 0 -30 -39 -49
-101 -49 l-57 0 -7 -40 c-7 -43 -30 -73 -49 -67 -18 6 -26 133 -29 462 -3 415
7 459 92 409 30 -18 52 -50 109 -164 52 -105 67 -105 59 0 -9 142 -72 238
-187 286 -45 19 -135 26 -183 14z"/>
<path d="M6042 1211 c-4 -171 6 -218 47 -241 21 -11 21 -10 21 195 l0 205 -32
0 -33 0 -3 -159z"/>
<path d="M4354 1203 c4 -87 11 -180 15 -208 l7 -50 21 40 c39 74 53 206 37
329 l-7 46 -40 0 -40 0 7 -157z"/>
<path d="M5106 1328 c-15 -95 -15 -161 -1 -342 8 -110 17 -201 19 -204 3 -2
12 20 20 49 18 60 22 159 19 382 l-3 147 -25 0 c-20 0 -25 -6 -29 -32z"/>
<path d="M3636 1287 c-25 -19 -40 -174 -31 -336 8 -152 15 -171 40 -99 15 43
19 92 23 251 2 113 0 197 -5 197 -5 0 -17 -6 -27 -13z"/>
<path d="M1842 1191 c-20 -116 -12 -611 9 -611 4 0 17 21 30 46 22 46 22 52
16 273 -6 212 -19 336 -36 354 -4 4 -13 -24 -19 -62z"/>
<path d="M2900 1093 c0 -209 9 -241 46 -165 15 29 19 66 22 180 l4 142 -36 0
-36 0 0 -157z"/>
<path d="M2335 1170 c-1 -3 -6 -119 -10 -259 l-7 -254 23 6 c13 4 34 7 47 7
l22 0 0 253 0 252 -36 0 c-20 0 -37 -2 -39 -5z"/>
<path d="M10317 450 c-70 -4 -131 -10 -134 -14 -12 -11 40 -56 78 -68 29 -8
63 -8 141 2 62 7 284 14 563 17 253 2 466 6 474 9 10 3 7 11 -12 29 l-25 26
-478 3 c-264 2 -537 0 -607 -4z"/>
</g>
</svg>
